<svg id="games" xmlns="http://www.w3.org/2000/svg" width="40" height="40" viewBox="0 0 40 40">
  <path id="Path_14793" data-name="Path 14793" d="M0,0H40V40H0Z" fill="none"/>
  <path id="Path_14794" data-name="Path 14794" d="M20.333,5.333v4.45L18.667,11.45,17,9.783V5.333h3.333M32,17v3.333H27.55l-1.667-1.667L27.55,17H32M9.783,17l1.667,1.667L9.783,20.333H5.333V17h4.45m8.883,8.883,1.667,1.667V32H17V27.55l1.667-1.667M23.667,2h-10v9.167l5,5,5-5ZM35.333,13.667H26.167l-5,5,5,5h9.167Zm-24.167,0H2v10h9.167l5-5Zm7.5,7.5-5,5v9.167h10V26.167Z" transform="translate(1.333 1.333)" fill="#28457b"/>
</svg>
