<svg id="storefront" xmlns="http://www.w3.org/2000/svg" width="40" height="40" viewBox="0 0 40 40">
  <g id="Group_9613" data-name="Group 9613">
    <rect id="Rectangle_6540" data-name="Rectangle 6540" width="40" height="40" fill="none"/>
  </g>
  <g id="Group_9615" data-name="Group 9615" transform="translate(3.342 5)">
    <g id="Group_9614" data-name="Group 9614">
      <path id="Path_14790" data-name="Path 14790" d="M35.163,12.817l-1.75-7.283A3.274,3.274,0,0,0,30.23,3H7.08A3.273,3.273,0,0,0,3.913,5.533l-1.75,7.283a5.625,5.625,0,0,0,1.033,4.8,6.389,6.389,0,0,0,.467.483V29.667A3.343,3.343,0,0,0,7,33H30.33a3.343,3.343,0,0,0,3.333-3.333V18.1a6.165,6.165,0,0,0,.467-.467A5.606,5.606,0,0,0,35.163,12.817Zm-4.983-6.5L31.93,13.6a2.26,2.26,0,0,1-.417,1.95,1.956,1.956,0,0,1-1.567.783,2.083,2.083,0,0,1-2.017-1.9l-.967-8.1Zm-9.85.017H23.6l.9,7.533a2.24,2.24,0,0,1-.55,1.783,1.988,1.988,0,0,1-1.583.683A2.12,2.12,0,0,1,20.33,14.15Zm-7.517,7.533.917-7.533H17V14.15a2.141,2.141,0,0,1-2.15,2.183,2.005,2.005,0,0,1-1.483-.683A2.368,2.368,0,0,1,12.813,13.867ZM5.4,13.6,7.08,6.333h3.283l-.967,8.1a2.1,2.1,0,0,1-2.017,1.9,1.918,1.918,0,0,1-1.55-.783A2.2,2.2,0,0,1,5.4,13.6ZM7,29.667V19.617a3.017,3.017,0,0,0,.383.05,5.215,5.215,0,0,0,3.733-1.583,5.36,5.36,0,0,0,3.85,1.583,5.284,5.284,0,0,0,3.717-1.55,5.463,5.463,0,0,0,3.817,1.55,5.292,5.292,0,0,0,3.733-1.583,5.215,5.215,0,0,0,3.733,1.583,3.018,3.018,0,0,0,.383-.05v10.05Z" transform="translate(-2.005 -3)" fill="#28457b"/>
    </g>
  </g>
</svg>
