<svg id="vod" xmlns="http://www.w3.org/2000/svg" width="40" height="40" viewBox="0 0 40 40">
  <path id="Path_14791" data-name="Path 14791" d="M0,0H40V40H0Z" fill="none"/>
  <path id="Path_14792" data-name="Path 14792" d="M5.333,8.117,8.267,14H32V27.333H5.333V8.117M35.333,4H28.667L32,10.667H27L23.667,4H20.333l3.333,6.667h-5L15.333,4H12l3.333,6.667h-5L7,4H5.333A3.329,3.329,0,0,0,2.017,7.333L2,27.333a3.343,3.343,0,0,0,3.333,3.333H32a3.343,3.343,0,0,0,3.333-3.333Z" transform="translate(1.333 2.667)" fill="#28457b"/>
</svg>
